<?xml version="1.0" encoding="UTF-8" standalone="no"?>
<!-- Created with Inkscape (http://www.inkscape.org/) -->

<svg
   width="210mm"
   height="297mm"
   viewBox="0 0 210 297"
   version="1.1"
   id="svg5"
   inkscape:version="1.1.1 (3bf5ae0, 2021-09-20)"
   sodipodi:docname="logo.svg"
   xmlns:inkscape="http://www.inkscape.org/namespaces/inkscape"
   xmlns:sodipodi="http://sodipodi.sourceforge.net/DTD/sodipodi-0.dtd"
   xmlns="http://www.w3.org/2000/svg"
   xmlns:svg="http://www.w3.org/2000/svg">
  <sodipodi:namedview
     id="namedview7"
     pagecolor="#505050"
     bordercolor="#eeeeee"
     borderopacity="1"
     inkscape:pageshadow="0"
     inkscape:pageopacity="0"
     inkscape:pagecheckerboard="0"
     inkscape:document-units="mm"
     showgrid="false"
     inkscape:zoom="0.43028199"
     inkscape:cx="275.40079"
     inkscape:cy="544.99144"
     inkscape:window-width="1213"
     inkscape:window-height="745"
     inkscape:window-x="0"
     inkscape:window-y="0"
     inkscape:window-maximized="1"
     inkscape:current-layer="layer1" />
  <defs
     id="defs2" />
  <g
     inkscape:label="Layer 1"
     inkscape:groupmode="layer"
     id="layer1">
    <path
       sodipodi:type="star"
       style="fill:#ffff00"
       id="path31"
       inkscape:flatsided="false"
       sodipodi:sides="5"
       sodipodi:cx="238.71518"
       sodipodi:cy="435.37039"
       sodipodi:r1="64.496231"
       sodipodi:r2="32.248116"
       sodipodi:arg1="0.92670404"
       sodipodi:arg2="1.5550226"
       inkscape:rounded="0"
       inkscape:randomized="0"
       d="m 277.44341,486.94449 -38.21958,-19.32999 -37.59085,20.5259 6.57342,-42.32228 -31.13752,-29.40817 42.28218,-6.82661 18.34681,-38.70116 19.55841,38.10321 42.47646,5.48953 -30.19441,30.37569 z"
       transform="matrix(1.8886004,0,0,1.7621256,-347.13438,-630.81947)"
       inkscape:transform-center-x="0.5936917"
       inkscape:transform-center-y="-10.324442" />
    <circle
       id="path40"
       style="fill:#ffff00;stroke:#000000;stroke-width:0.264583"
       cx="80.713722"
       cy="137.02094"
       r="0.081904992" />
    <circle
       id="path42"
       style="fill:#ffff00;stroke:#000000;stroke-width:0.264583"
       cx="80.713722"
       cy="137.02094"
       r="0.081904992" />
    <circle
       id="path44"
       style="fill:#ffff00;stroke:#000000;stroke-width:0.264583"
       cx="80.713722"
       cy="137.02094"
       r="0.081904992" />
    <circle
       id="path46"
       style="fill:#ffff00;stroke:#000000;stroke-width:0.264583"
       cx="80.713722"
       cy="137.02094"
       r="0.081904992" />
    <path
       style="fill:#ffff00;stroke-width:0.264583"
       id="path48"
       d="m 115.54373,139.43185 c 0.22386,6.82577 0.27058,13.65278 0.20447,20.48131 -0.28114,7.89198 -1.86489,13.49576 -7.07409,19.59542 -2.59182,3.03487 -4.12163,3.97059 -7.19672,6.3338 -1.09746,0.67846 -2.168691,1.40131 -3.292374,2.0354 -0.135789,0.0766 0.457796,-0.39654 0.308491,-0.35161 -0.779325,0.23452 -1.491109,0.65511 -2.254496,0.93723 -1.874017,0.69257 -3.700841,0.95466 -5.674582,1.15693 -4.256122,0.1943 -8.590965,0.3285 -12.735983,-0.86039 -1.292011,-0.37058 -2.529726,-0.90937 -3.794591,-1.36406 -5.254021,-2.54066 -10.395391,-5.63252 -13.708218,-10.58935 -1.98823,-2.97489 -2.212655,-4.28382 -3.404021,-7.64412 -1.720281,-6.22579 -2.173859,-12.68447 -2.228016,-19.11367 -0.0057,-3.77638 0.10169,-7.55138 0.12905,-11.32748 0.04671,-4.57803 0.0062,-9.15612 0.0077,-13.73419 0.464455,-5.11516 1.914935,-10.10905 4.699953,-14.45931 2.046427,-3.19655 2.825173,-3.74116 5.463307,-6.51048 4.900781,-4.383329 10.247484,-8.349329 15.958113,-11.625805 0.447146,-0.256548 0.939313,-0.4299 1.428364,-0.592955 1.974836,-0.658434 3.972401,-1.246629 5.958602,-1.869945 8.727175,-2.084129 17.767961,-3.427318 26.726331,-2.021666 5.66079,0.88823 6.45425,1.587548 11.59628,3.770395 4.54841,2.466136 7.99126,5.362874 10.64843,9.828766 2.01429,3.38542 2.9247,6.86331 3.78416,10.64682 0.81575,4.50837 0.81423,9.09516 0.75149,13.65802 0,0 3.32913,-1.69326 3.32913,-1.69326 v 0 c 0.003,-4.56941 -0.0637,-9.1631 -0.91946,-13.66854 -0.27111,-1.11465 -0.48376,-2.24516 -0.81332,-3.34394 -1.69276,-5.64389 -4.64273,-10.793787 -9.42782,-14.376367 -1.45153,-1.08676 -3.07842,-1.917113 -4.61762,-2.875669 -5.18028,-2.193682 -6.02404,-2.914404 -11.72063,-3.810127 -8.95976,-1.408816 -18.008947,-0.138422 -26.755202,1.890866 -1.959147,0.575387 -4.003619,0.91491 -5.877441,1.72616 -2.529392,1.095073 -4.871214,2.583093 -7.25842,3.960865 -5.730401,3.3073 -11.092323,7.309802 -15.998661,11.735472 -2.630056,2.79933 -3.441858,3.38643 -5.473631,6.61326 -2.786438,4.42538 -4.176474,9.50572 -4.727347,14.66764 -0.07492,4.59791 -0.08782,9.19616 -0.128035,13.79445 -0.05257,3.77607 -0.116517,7.55251 -0.107434,11.32899 0.191593,6.4258 0.846376,12.86549 2.520622,19.08951 1.215136,3.44663 1.410309,4.70549 3.453717,7.75167 3.349318,4.99294 8.548434,8.09142 13.790925,10.7598 1.253715,0.48338 2.477402,1.05333 3.761145,1.45015 4.107045,1.26951 8.42342,1.23404 12.666254,1.04705 1.589445,-0.13014 2.302497,-0.12141 3.837996,-0.5019 4.880393,-1.20932 9.107292,-4.17341 13.311612,-6.79971 3.03474,-2.39608 4.51259,-3.32431 7.0666,-6.38512 5.16144,-6.18563 6.73313,-11.83289 6.96001,-19.7677 0.10528,-6.92204 0.13748,-13.84527 0.34411,-20.76548 0,0 -3.51871,1.79287 -3.51871,1.79287 z" />
    <circle
       id="path50"
       style="fill:#ffff00;stroke:#000000;stroke-width:0.264583"
       cx="116.79627"
       cy="131.60687"
       r="0.081904992" />
    <circle
       id="path52"
       style="fill:#ffff00;stroke:#000000;stroke-width:0.264583"
       cx="116.79627"
       cy="131.60687"
       r="0.081904992" />
    <path
       style="fill:#ffff00;stroke-width:0.264583"
       id="path54"
       d="m 81.953173,115.78654 c 2.087557,4.09757 4.825309,7.74895 7.740137,11.28422 4.833299,5.45353 11.30758,8.93483 17.22777,13.01826 1.57087,1.0835 3.0857,2.24609 4.62856,3.36914 6.60989,4.97727 12.34312,10.92501 17.68122,17.21076 0,0 3.08205,-1.8611 3.08205,-1.8611 v 0 c -5.56049,-6.13982 -11.40692,-12.02988 -17.9606,-17.12551 -1.52672,-1.14046 -3.02485,-2.32024 -4.58016,-3.42138 -5.82296,-4.12257 -12.231283,-7.60869 -17.006004,-13.03086 -2.853738,-3.53146 -5.534382,-7.20675 -7.372352,-11.38739 0,0 -3.440621,1.94386 -3.440621,1.94386 z" />
    <path
       sodipodi:type="spiral"
       style="fill:none;fill-rule:evenodd;stroke:#000000"
       id="path3269"
       sodipodi:cx="349.0625"
       sodipodi:cy="502.67725"
       sodipodi:expansion="1"
       sodipodi:revolution="3"
       sodipodi:radius="133.14479"
       sodipodi:argument="-19.62454"
       sodipodi:t0="0"
       d="m 349.0625,502.67725 c 4.76931,-4.671 8.64942,4.12443 7.76351,7.9269 -2.40078,10.30448 -15.64742,11.82706 -23.61733,7.60011 -14.25629,-7.56103 -15.73502,-26.82525 -7.4367,-39.30774 12.17812,-18.31855 38.1554,-19.76068 54.99815,-7.2733 22.44874,16.64372 23.8366,49.5397 7.1099,70.68856 -21.04885,26.61369 -60.94984,27.93854 -86.37898,6.9465 -30.79809,-25.42417 -32.05554,-72.37453 -6.78309,-102.06939 29.78271,-34.99436 83.80829,-36.18201 117.7598,-6.61969 39.19836,34.13087 40.3148,95.24811 6.45629,133.45021 -38.47219,43.40766 -106.69219,44.452 -149.14063,6.29289 -47.62073,-42.80875 -48.59239,-118.13936 -6.12948,-164.83104 47.14188,-51.83661 129.58888,-52.7352 180.52145,-5.96608"
       transform="scale(0.26458333)" />
  </g>
</svg>
